<svg id="Layer_1" xmlns="http://www.w3.org/2000/svg" viewBox="0 0 748.9 183.7"><style>.st0{fill:#404545}.st1{fill:#3d4543}.st2{fill:#007481}.st3{fill:#00adbb}.st4{fill:#742e89}</style><path class="st0" d="M482.7 104.5c3.7 0 7.2.2 10.5.7 3.3.5 6.2 1.4 8.6 2.7 2.5 1.4 4.4 3.3 5.8 5.9 1.4 2.5 2.2 5.9 2.2 10.1 0 2.3-.4 4.3-1.2 6.1-.8 1.8-1.9 3.4-3.2 4.8-1.3 1.4-2.9 2.5-4.7 3.4-1.8.9-3.7 1.6-5.7 2.1 6.2.6 11.1 2.5 14.6 5.6 3.6 3.1 5.4 7.4 5.4 12.9 0 4.3-.7 8-1.9 10.9-1.3 2.9-3.2 5.3-5.7 7.1-2.5 1.8-5.6 3.1-9.3 3.8-3.7.8-7.9 1.2-12.7 1.2H439v-6c6.2 0 9.3-1.6 9.3-4.8v-55.3c0-3.2-3.1-4.8-9.3-4.8v-6.4h43.7zm-18.7 9V138h16.9c4.1 0 7.2-1 9.3-3 2.1-2 3.2-5.2 3.2-9.7 0-3.9-1.1-6.9-3.3-8.8-2.2-1.9-5.3-2.9-9.3-2.9H464zm0 31.3v28.4h19.6c2.7 0 5-.4 6.8-1.1 1.8-.7 3.3-1.8 4.4-3.1 1.1-1.3 1.9-2.9 2.4-4.7.5-1.9.7-3.9.7-6.3 0-4.7-1.2-8.1-3.7-10.2-2.5-2.1-6-3.1-10.7-3.1H464zM578.3 171.7c0 3.1 1.1 4.6 3.2 4.6 1 0 1.7-.5 2.2-1.4.5-.9.7-2 .7-3.2v-6.1h5v4.6c0 4.6-1.1 7.9-3.3 9.7-2.2 1.8-4.9 2.7-8.3 2.7-1.9 0-3.5-.3-4.8-.9-1.3-.6-2.4-1.4-3.3-2.3-.9-.9-1.6-2.1-2.1-3.3-.5-1.3-.9-2.6-1.2-4-.7 1.5-1.7 2.9-3.1 4.3-1.4 1.4-3 2.7-4.8 3.7-1.9 1.1-4 1.9-6.3 2.6-2.4.6-4.9.9-7.6.9-6.5 0-11.3-1.4-14.3-4.1-3-2.7-4.5-6.3-4.5-10.9 0-2.7.5-5 1.6-6.9 1.1-1.9 2.6-3.4 4.5-4.6 1.9-1.2 4.1-2.2 6.6-2.9 2.5-.7 5.2-1.4 8.1-2 2.9-.6 5.9-1.2 9-1.7 3.1-.6 6.2-1.3 9.2-2.1v-3.2c0-1.7-.2-3.3-.7-4.8-.5-1.5-1.2-2.9-2.2-4.1-1-1.2-2.3-2.1-3.8-2.7-1.5-.7-3.3-1-5.4-1-3.5 0-6.5.4-8.9 1.1-2.4.7-4.4 1.7-5.8 2.8 1.6.1 3 .6 4.1 1.5 1.1.9 1.7 2.2 1.7 3.8 0 2-.6 3.5-1.9 4.7-1.3 1.2-3.1 1.8-5.6 1.8-2.5 0-4.3-.6-5.5-1.9-1.2-1.3-1.8-3.1-1.8-5.4 0-1.8.5-3.5 1.6-5.2 1.1-1.7 2.7-3.2 4.8-4.6 2.1-1.3 4.7-2.4 7.8-3.3 3.1-.8 6.6-1.3 10.6-1.3 3.2 0 6.3.3 9.3.8 2.9.6 5.6 1.6 7.8 3 2.3 1.4 4.1 3.4 5.5 5.8 1.4 2.5 2.1 5.6 2.1 9.4v26.1zm-13.6-19.2c-4.5 1.1-8.4 2.1-11.6 3.1-3.3.9-6 1.9-8.1 3-2.1 1.1-3.7 2.3-4.8 3.7-1.1 1.4-1.6 3.1-1.6 5.2 0 2.5.9 4.5 2.6 5.9 1.8 1.4 4.4 2.1 7.9 2.1 3.6 0 6.7-.9 9.5-2.6 2.7-1.7 4.8-3.7 6.1-5.8v-14.6zM659.6 171.1c0 3.2 3.1 4.7 9.2 4.7v6h-30.3v-6c4.7 0 7.1-1.6 7.1-4.7V148c0-4.3-.7-7.4-2.1-9.3-1.4-1.9-3.3-2.8-5.7-2.8-1.8 0-3.5.4-5.3 1.1-1.8.7-3.5 1.7-5.1 2.9-1.6 1.2-3.1 2.7-4.4 4.4-1.3 1.7-2.4 3.5-3.2 5.5v21.4c0 3.2 2.3 4.7 7 4.7v6h-30v-6c6 0 9-1.6 9-4.7v-31.7c0-3.1-3-4.6-9-4.6v-6h23.1l.1 10.6c2.7-3.4 6-6.2 10-8.4s8.5-3.3 13.5-3.3c5.3 0 9.3 1.2 12.2 3.6 2.8 2.4 4.3 6.4 4.3 11.8v27.9zM746.6 134.8c-2.7.1-5.2.6-7.5 1.3-2.4.7-4.4 1.7-6.2 2.9l-11.2 8.2 18.5 25.1c.8 1.2 1.9 2.1 3.3 2.7 1.4.6 3.1.9 5.3.9v6h-33.4v-6h6.2c1.8 0 2.6-.6 2.6-1.7 0-.6-.3-1.2-.8-1.9l-13-17.6-10.6 7.3v9.2c0 1.6.8 2.8 2.3 3.6 1.5.8 3.7 1.2 6.6 1.2v6h-31.9v-6c6 0 9-1.6 9-4.7v-58.9c0-3.1-3-4.6-9-4.6v-6h23.1v53.6l22.2-16c.9-.6 1.4-1.4 1.4-2.3 0-.6-.2-1.1-.6-1.5-.4-.4-1.1-.6-2.1-.6h-4.9v-6h30.8v5.8z"/><path class="st1" d="M210.6 101.6c3.9 0 7.5.2 10.9.7 3.4.5 6.4 1.4 9 2.8 2.6 1.4 4.6 3.4 6 6.1 1.5 2.7 2.2 6.1 2.2 10.5 0 2.4-.4 4.5-1.2 6.4-.8 1.9-1.9 3.5-3.3 4.9-1.4 1.4-3 2.6-4.9 3.6-1.9 1-3.8 1.7-5.9 2.2 6.5.6 11.5 2.6 15.2 5.7 3.7 3.2 5.5 7.7 5.5 13.5 0 4.5-.7 8.3-2 11.3-1.4 3-3.3 5.5-5.9 7.3-2.6 1.9-5.8 3.2-9.6 4-3.8.8-8.2 1.2-13.2 1.2h-48.1v-6.1c6.4 0 9.6-1.7 9.6-5v-57.4c0-3.3-3.2-5-9.6-5v-6.6l45.3-.1zm-19.3 9.4v25.1h17.5c4.3 0 7.6-1 9.7-3.1 2.2-2.1 3.2-5.4 3.2-9.9 0-4.1-1.1-7.1-3.3-9.1-2.2-2-5.4-3-9.6-3h-17.5zm0 32.4V173h20.3c2.8 0 5.2-.4 7.1-1.1 1.9-.8 3.5-1.8 4.6-3.2 1.2-1.4 2-3 2.5-4.9.5-1.9.8-4.1.8-6.4 0-5-1.3-8.5-3.8-10.7-2.5-2.1-6.3-3.2-11.2-3.2h-20.3zM326.8 128.1l-7.9.6c-1.4-6-4.2-10.9-8.3-14.6-4.1-3.7-9.3-5.5-15.8-5.5-4.7 0-8.8.8-12.2 2.5-3.4 1.7-6.1 4-8.3 6.9-2.1 2.9-3.7 6.5-4.7 10.6s-1.5 8.6-1.5 13.5c0 5.4.6 10.1 1.9 14.1 1.3 4 3 7.3 5.3 9.9 2.3 2.6 5 4.6 8.1 5.9 3.1 1.3 6.6 1.9 10.4 1.9 7.5 0 13.4-1.7 17.7-5.2 4.3-3.5 7.4-8.4 9.4-14.7l7.2 2.5c-1 3.5-2.4 6.8-4.2 10-1.8 3.2-4 6.1-6.9 8.6-2.8 2.5-6.2 4.5-10.2 6.1-4 1.5-8.8 2.3-14.3 2.3-5.8 0-11.3-.8-16.3-2.5s-9.4-4.2-13.2-7.6c-3.8-3.4-6.7-7.6-8.9-12.8-2.2-5.1-3.2-11.2-3.2-18.2 0-7.3 1.1-13.6 3.2-19s5-9.8 8.7-13.3c3.7-3.5 8-6.1 13-7.8 5-1.7 10.3-2.6 16-2.6 5.8 0 10.8.9 14.9 2.6 4.1 1.7 7.2 3.8 9.3 6l2.7-6.8h8v26.6zM381.6 101.6c3.9 0 7.5.2 10.9.7 3.4.5 6.4 1.4 9 2.8 2.6 1.4 4.6 3.4 6 6.1 1.5 2.7 2.2 6.1 2.2 10.5 0 2.4-.4 4.5-1.2 6.4-.8 1.9-1.9 3.5-3.3 4.9-1.4 1.4-3 2.6-4.9 3.6-1.9 1-3.8 1.7-5.9 2.2 6.5.6 11.5 2.6 15.2 5.7 3.7 3.2 5.5 7.7 5.5 13.5 0 4.5-.7 8.3-2 11.3-1.4 3-3.3 5.5-5.9 7.3-2.6 1.9-5.8 3.2-9.6 4-3.8.8-8.2 1.2-13.2 1.2h-48.1v-6.1c6.4 0 9.6-1.7 9.6-5v-57.4c0-3.3-3.2-5-9.6-5v-6.6l45.3-.1zm-19.4 9.4v25.1h17.5c4.3 0 7.6-1 9.7-3.1 2.2-2.1 3.2-5.4 3.2-9.9 0-4.1-1.1-7.1-3.3-9.1-2.2-2-5.4-3-9.6-3h-17.5zm0 32.4V173h20.3c2.8 0 5.2-.4 7.1-1.1 1.9-.8 3.5-1.8 4.6-3.2 1.2-1.4 2-3 2.5-4.9.5-1.9.8-4.1.8-6.4 0-5-1.3-8.5-3.8-10.7-2.5-2.1-6.3-3.2-11.2-3.2h-20.3z"/><path class="st2" d="M127.1 111.9c3.4-2.8 7-5.6 10.6-8.2v30.1h-22.5v-11.2c3.7-3.5 7.6-7.1 11.9-10.7zM241.7 63.7v14.9h-12.1V65.7c4-.8 8-1.4 12.1-2z"/><path class="st2" d="M110.2 81.3c-7.3 16.6-15.8 40.4-23.7 73.1 14.7-24.6 69.1-96.9 203.6-96.8 0 .1-86.5-20.4-179.9 23.7z"/><path class="st3" d="M270 33.7C134.6-87.1 12.8 155.3 12.8 155.3h.1c-4.6 8.5-9 17.4-13 26.5 75.8-.2 77.9-.2 77.9-.2s2.4-13.3 5.9-28.3c2.2-9.2 4.5-17.7 6.8-25.6l.3-.9c5.2-17.8 9.5-31.2 14.3-42.5-.1.1.7-.9.6-.8 2.2-5 4.6-10 7.2-14.9 7.9-15.8 13.5-22.1 13.5-22.1 31.5-44 82.9-66.8 163.6 11.3-8.6-14.9-20-24.1-20-24.1z"/><path class="st4" d="M103.5 98c-9.1 23.8-9.1 23.8-17 56.5 14.7-24.6 69.1-96.9 203.6-96.8 0 0-93.3-3.9-186.6 40.3z"/><path class="st2" d="M127.1 111.9c3.4-2.8 7-5.6 10.6-8.2v30.1h-22.5v-11.2c3.7-3.5 7.6-7.1 11.9-10.7zM241.7 63.7v14.9h-12.1V65.7c4-.8 8-1.4 12.1-2z"/><g><path class="st2" d="M110.2 81.3c-7.3 16.6-15.8 40.4-23.7 73.1 14.7-24.6 69.1-96.9 203.6-96.8 0 .1-86.5-20.4-179.9 23.7z"/></g><g><path class="st3" d="M270 33.7C134.6-87.1 12.8 155.3 12.8 155.3h.1c-4.6 8.5-9 17.4-13 26.5 75.8-.2 77.9-.2 77.9-.2s2.4-13.3 5.9-28.3c2.2-9.2 4.5-17.7 6.8-25.6l.3-.9c5.2-17.8 9.5-31.2 14.3-42.5-.1.1.7-.9.6-.8 2.2-5 4.6-10 7.2-14.9 7.9-15.8 13.5-22.1 13.5-22.1 31.5-44 82.9-66.8 163.6 11.3-8.6-14.9-20-24.1-20-24.1z"/></g><g><path class="st4" d="M103.5 98c-9.1 23.8-9.1 23.8-17 56.5 14.7-24.6 69.1-96.9 203.6-96.8 0 0-93.3-3.9-186.6 40.3z"/></g></svg>